<?xml version="1.0" standalone="no"?>
<!DOCTYPE svg PUBLIC "-//W3C//DTD SVG 20010904//EN"
 "http://www.w3.org/TR/2001/REC-SVG-20010904/DTD/svg10.dtd">
<svg version="1.0" xmlns="http://www.w3.org/2000/svg"
 width="1186.000000pt" height="413.000000pt" viewBox="0 0 1186.000000 413.000000"
 preserveAspectRatio="xMidYMid meet">
<metadata>
Created by potrace 1.16, written by Peter Selinger 2001-2019
</metadata>
<g transform="translate(0.000000,413.000000) scale(0.100000,-0.100000)"
fill="#000000" stroke="none">
<path d="M514 3829 c-105 -24 -205 -119 -241 -228 -17 -53 -18 -126 -16 -1556
l1 -1500 22 -60 c17 -44 38 -75 79 -116 80 -79 119 -91 310 -97 93 -2 148 -8
140 -13 -10 -6 -3 -9 21 -8 29 0 31 2 15 9 -16 7 -11 9 20 9 30 0 35 -2 20 -8
-16 -7 -13 -9 18 -13 36 -4 50 5 25 15 -7 3 3 6 22 6 26 1 31 -2 20 -9 -11 -7
-6 -10 20 -9 29 0 31 2 15 9 -13 6 7 8 60 8 73 -1 75 -2 30 -8 -27 -4 54 -7
180 -7 130 0 204 3 170 7 -43 5 -16 7 98 8 99 1 157 -2 157 -8 0 -6 26 -9 63
-8 l62 1 -60 7 c-42 5 -11 7 100 8 97 0 152 -3 140 -8 -13 -6 10 -8 65 -8 l85
1 -65 7 c-48 5 -25 7 93 8 103 1 156 -1 152 -8 -4 -6 7 -10 27 -9 31 1 32 1 8
9 -16 5 22 8 100 9 134 1 220 17 275 51 18 11 35 16 39 12 4 -4 6 -2 4 4 -2 5
12 26 31 44 19 19 44 56 56 82 12 26 25 45 28 41 4 -3 7 574 7 1282 0 708 3
1291 6 1296 3 5 1 9 -3 9 -5 0 -15 15 -21 34 -7 19 -33 57 -57 84 -24 27 -41
53 -37 56 4 4 2 6 -4 4 -6 -2 -132 114 -278 257 -162 158 -285 270 -314 285
l-46 25 -801 2 c-464 0 -817 -3 -841 -8z m1500 -226 c12 -40 14 -71 6 -111 -4
-23 -3 -39 1 -36 8 4 4 -41 -7 -74 -2 -7 0 -11 4 -8 5 3 7 -25 6 -62 -6 -154
30 -247 115 -292 44 -24 55 -25 301 -30 140 -4 249 -7 243 -8 -7 -1 -13 -7
-13 -13 0 -5 4 -7 10 -4 7 4 10 -123 10 -375 0 -252 -3 -379 -10 -375 -6 4
-10 -9 -9 -32 1 -38 1 -38 9 -8 4 17 8 -186 8 -450 0 -276 -3 -472 -8 -460 -7
16 -9 11 -9 -20 0 -31 2 -36 9 -20 6 13 8 -7 8 -60 l-1 -80 -7 60 -7 60 -1
-80 c0 -53 2 -73 8 -60 5 12 9 -78 9 -223 1 -271 -4 -297 -61 -332 -33 -20
-48 -20 -1046 -20 -1105 0 -1048 -3 -1088 57 -17 26 -19 55 -21 416 -1 277 1
385 9 381 7 -5 8 -2 2 7 -4 8 -10 47 -12 88 -3 55 0 71 9 65 9 -5 9 -3 3 7
-10 15 -18 1925 -8 1996 7 53 55 107 90 100 13 -2 21 0 18 4 -3 5 316 9 710 9
672 0 715 -1 720 -17z"/>
<path d="M1398 3265 c-84 -17 -127 -37 -175 -83 -21 -20 -41 -35 -45 -34 -5 1
-7 -1 -6 -6 5 -18 -15 -52 -30 -53 -9 0 -12 -3 -5 -5 8 -4 8 -15 1 -40 -9 -33
-8 -197 1 -188 8 8 51 -78 44 -89 -3 -5 -1 -7 4 -4 13 8 46 -27 36 -38 -5 -4
-2 -5 5 -1 7 5 21 2 30 -6 38 -32 107 -53 172 -53 118 0 222 72 277 192 22 48
24 63 19 131 -9 114 -9 113 -57 166 -53 58 -109 93 -166 102 -24 3 -40 10 -37
15 3 5 4 9 2 8 -2 0 -33 -7 -70 -14z"/>
<path d="M1187 2575 c-31 -8 -70 -21 -86 -30 -17 -8 -36 -13 -43 -12 -7 2 -10
2 -6 0 5 -3 -16 -26 -45 -53 -29 -26 -59 -59 -66 -74 -8 -14 -18 -23 -22 -20
-5 3 -6 -1 -4 -9 3 -7 -1 -30 -10 -50 -23 -56 -21 -198 4 -228 l19 -24 478 -3
c337 -2 487 1 506 9 31 13 58 63 58 108 0 105 -44 207 -125 286 -49 49 -74 65
-130 85 -63 21 -90 24 -270 26 -149 3 -215 0 -258 -11z"/>
<path d="M870 1825 c-16 -5 -39 -19 -50 -30 -23 -23 -44 -85 -29 -85 5 0 9 -5
9 -11 0 -5 -4 -7 -10 -4 -5 3 -10 2 -10 -3 0 -5 9 -12 21 -15 12 -3 19 -10 15
-15 -3 -5 0 -10 7 -12 7 -2 335 -5 730 -7 395 -2 716 -7 713 -11 -3 -5 1 -9 9
-9 8 0 12 4 9 9 -3 4 8 8 23 8 88 0 120 116 50 176 -21 18 -53 19 -740 19
-452 0 -728 -4 -747 -10z"/>
<path d="M826 1389 c-14 -11 -26 -27 -26 -35 0 -8 -4 -13 -9 -9 -11 6 7 -65
20 -81 5 -6 7 -14 4 -17 -3 -4 -2 -5 1 -3 3 2 21 -2 40 -10 29 -12 152 -14
770 -14 405 1 734 4 730 7 -3 4 4 17 16 30 28 30 29 84 1 120 l-20 28 -750 3
c-746 2 -750 2 -777 -19z"/>
<path d="M1210 1013 c0 -8 -44 -11 -162 -11 -197 1 -230 -8 -248 -70 -17 -54
5 -97 58 -112 25 -8 166 -10 430 -8 l394 3 24 28 c42 49 25 126 -32 147 -13 5
-93 10 -177 10 -83 0 -161 0 -172 0 -11 0 -38 0 -59 0 -22 -1 -43 5 -47 12 -6
9 -9 9 -9 1z"/>
<path d="M3973 2785 c-58 -16 -125 -47 -162 -76 -13 -10 -28 -16 -35 -12 -6 3
-8 3 -4 -2 4 -4 -8 -26 -27 -49 -46 -57 -92 -152 -112 -233 -12 -50 -16 -108
-14 -223 2 -180 4 -223 12 -230 3 -3 13 -27 23 -55 63 -172 180 -274 359 -312
133 -28 306 1 402 67 24 16 46 26 50 22 5 -4 5 -2 2 4 -4 6 5 22 19 35 49 46
113 205 97 245 -4 11 -30 14 -119 14 l-113 0 -26 -55 c-39 -81 -92 -110 -201
-110 -71 0 -85 3 -122 28 -87 57 -124 158 -126 347 -2 250 68 377 219 395 58
8 162 -21 157 -43 -1 -8 2 -11 6 -8 19 11 70 -72 74 -119 2 -21 7 -25 36 -25
24 0 31 -4 26 -12 -6 -10 -4 -10 7 0 8 7 42 12 89 12 100 0 105 4 91 71 -35
166 -145 282 -308 324 -72 19 -230 18 -300 0z"/>
<path d="M4626 2792 c-9 -2 -16 -9 -16 -15 0 -6 70 -222 155 -480 93 -280 154
-478 150 -491 -2 -11 -2 -14 2 -6 3 8 21 -28 42 -90 l36 -105 140 -3 140 -3
193 583 c106 321 193 588 193 595 -1 17 -20 19 -145 13 l-111 -5 -18 -60 c-10
-33 -34 -112 -53 -175 -35 -114 -81 -264 -151 -495 -20 -66 -40 -124 -43 -128
-4 -4 -21 41 -39 100 -64 209 -162 529 -198 645 l-36 117 -112 3 c-62 2 -120
2 -129 0z"/>
<path d="M6407 2790 l-69 -5 1 -162 c1 -108 -2 -163 -9 -163 -5 0 -10 -10 -10
-22 0 -19 2 -20 10 -8 7 10 10 -7 10 -58 0 -46 -4 -71 -10 -67 -6 4 -10 -9 -9
-32 1 -38 1 -38 9 -8 5 19 8 -12 9 -88 1 -77 -3 -116 -9 -112 -6 4 -10 -6 -9
-22 0 -25 1 -26 9 -8 6 13 9 -20 9 -92 1 -65 -3 -114 -9 -118 -5 -3 -9 -21 -9
-38 l1 -32 8 30 c8 30 8 30 9 -8 1 -23 -3 -36 -9 -32 -5 3 -10 -1 -10 -10 0
-9 4 -14 10 -10 5 3 10 -21 12 -57 l3 -63 104 -3 c57 -1 108 1 113 6 9 9 12
710 2 735 -3 9 -2 17 3 17 13 0 95 -219 87 -232 -4 -6 -3 -9 2 -5 5 3 48 -94
94 -216 l85 -222 95 0 94 0 83 220 c189 500 183 484 180 433 -1 -21 -6 -34
-12 -30 -5 3 -5 -1 1 -9 7 -8 12 -39 12 -69 0 -30 0 -184 1 -342 l1 -288 109
0 109 0 8 28 c4 15 6 32 5 37 -2 6 -4 258 -5 562 0 303 -3 554 -6 556 -3 3
-55 6 -115 7 -193 3 -165 20 -223 -132 -28 -73 -91 -239 -141 -368 -50 -129
-91 -241 -91 -250 -1 -11 -3 -11 -11 4 -9 14 -8 20 2 27 12 7 11 9 -1 9 -14 0
-79 160 -248 605 -18 50 -37 93 -41 97 -9 10 -148 14 -234 8z"/>
<path d="M8170 2792 l-115 -3 -95 -279 c-52 -153 -99 -276 -104 -273 -5 3 -6
1 -2 -6 10 -15 -65 -241 -78 -234 -5 3 -6 1 -2 -5 7 -12 -94 -333 -103 -327
-3 2 -6 -11 -6 -28 l0 -32 126 -3 125 -3 11 43 c6 24 22 78 34 121 l24 77 203
0 202 0 12 -27 c6 -16 11 -43 10 -62 0 -19 3 -29 7 -22 5 7 15 -12 25 -50 14
-48 15 -63 5 -69 -6 -5 52 -9 129 -9 111 -1 142 1 142 11 0 8 -72 227 -161
488 -88 261 -176 523 -195 581 -40 124 -25 115 -194 111z m129 -654 l28 -88
-46 -1 c-53 -2 -225 2 -228 5 -1 1 25 89 58 196 32 107 62 208 66 225 5 25 13
9 50 -110 24 -77 57 -179 72 -227z"/>
<path d="M8903 2792 l-63 -3 0 -595 0 -595 130 2 c95 1 128 4 123 13 -11 17
-12 285 -2 326 5 19 26 55 47 79 l37 43 48 -70 c30 -46 45 -78 41 -89 -5 -14
-4 -15 4 -4 8 11 13 8 26 -16 8 -17 12 -34 8 -38 -4 -5 -2 -5 5 -2 7 4 22 -12
38 -40 15 -27 34 -56 42 -65 8 -9 12 -22 7 -29 -5 -8 -3 -10 6 -4 10 6 12 4 7
-8 -4 -10 -2 -16 6 -14 7 1 12 -7 12 -18 1 -11 6 -19 13 -17 7 1 18 -9 24 -23
11 -25 11 -25 155 -25 111 0 143 3 143 13 0 7 -19 40 -43 72 -24 33 -113 162
-198 288 -84 125 -160 236 -167 246 -11 16 1 36 104 175 63 86 120 154 125
151 5 -4 7 0 4 7 -3 7 31 60 75 117 44 57 80 110 80 118 0 10 -10 12 -37 9
-21 -3 -86 -5 -144 -5 l-107 -1 -32 -50 c-18 -28 -37 -47 -43 -43 -6 3 -7 1
-3 -5 4 -6 -38 -73 -92 -149 -54 -76 -113 -159 -131 -186 -18 -26 -36 -45 -42
-42 -5 3 -6 0 -3 -8 3 -8 -1 -19 -9 -25 -11 -9 -13 32 -12 244 0 156 -4 258
-9 262 -12 7 -82 8 -173 4z"/>
<path d="M9897 2792 c-15 -3 -17 -20 -17 -133 0 -84 -4 -128 -10 -124 -5 3
-10 1 -10 -4 0 -6 5 -11 10 -11 6 0 10 -17 10 -37 0 -28 -3 -34 -10 -23 -12
18 -11 22 -13 -67 -2 -70 7 -98 16 -50 3 15 5 12 6 -11 0 -20 -3 -31 -9 -27
-5 3 -10 -3 -10 -15 0 -12 5 -18 10 -15 6 4 10 -7 10 -24 0 -17 -4 -30 -9 -29
-10 3 -11 -2 -10 -29 0 -15 2 -15 9 2 7 15 9 10 9 -23 1 -26 -3 -41 -9 -37 -5
3 -10 1 -10 -4 0 -6 5 -11 10 -11 6 0 10 -13 10 -30 0 -17 -4 -29 -9 -28 -5 2
-9 -1 -9 -7 0 -5 4 -9 9 -7 5 1 9 -14 9 -33 0 -19 -4 -35 -10 -35 -5 0 -10
-10 -10 -22 0 -19 2 -20 10 -8 7 11 10 7 10 -17 0 -23 -4 -31 -14 -27 -10 4
-12 -2 -9 -20 3 -14 8 -24 12 -22 3 2 7 -7 7 -20 1 -13 -2 -21 -7 -18 -5 3 -9
-4 -9 -16 0 -12 5 -18 10 -15 6 4 10 -7 10 -24 0 -23 -5 -31 -17 -31 -16 -1
-16 -2 -2 -13 17 -13 25 -82 8 -72 -5 4 -9 1 -9 -4 0 -6 5 -11 10 -11 6 0 10
-9 10 -20 0 -20 5 -20 358 -18 l357 3 3 104 c1 57 -1 108 -5 112 -5 5 -113 9
-241 9 l-232 1 0 135 0 134 210 0 210 0 0 104 c0 85 -3 105 -16 110 -9 3 -99
6 -200 6 -140 0 -184 3 -184 13 0 8 -4 7 -10 -3 -7 -10 -10 26 -10 112 l0 127
36 7 c20 4 119 4 222 1 110 -3 194 -1 204 4 15 8 18 24 18 105 0 67 -4 96 -12
99 -15 5 -666 12 -691 7z"/>
<path d="M10786 2792 c-13 -3 -16 -19 -16 -105 -1 -268 -1 -1063 -1 -1075 1
-10 28 -12 119 -10 l117 3 0 200 c0 155 3 199 13 197 19 -3 14 16 -5 21 -10 3
16 5 57 6 l75 1 93 -180 c52 -102 90 -186 86 -193 -4 -6 -4 -9 1 -5 5 5 16 -6
26 -22 l19 -30 131 0 131 0 -6 24 c-3 12 -34 74 -69 137 -94 168 -119 218
-111 231 4 7 3 8 -4 4 -7 -4 -19 9 -32 33 -25 50 -25 48 6 55 31 8 106 76 134
121 49 80 65 222 35 322 -20 68 -93 165 -147 197 -95 55 -116 59 -384 65 -138
3 -259 5 -268 3z m474 -228 c59 -24 85 -72 84 -154 -1 -131 -55 -174 -221
-175 -56 0 -104 3 -107 6 -8 7 -17 300 -10 322 5 15 19 17 109 17 73 0 117 -5
145 -16z"/>
<path d="M5677 2233 c-4 -3 -7 -53 -7 -110 l0 -103 233 0 c168 0 236 3 245 12
15 15 16 161 2 189 -10 18 -24 19 -239 19 -125 0 -231 -3 -234 -7z"/>
</g>
</svg>
